<svg width="1512" height="917" viewBox="1512 917" fill="none" xmlns="http://www.w3.org/2000/svg">
<g clip-path="url(#clip0_3_2)">
<rect width="1512" height="917" fill="white"/>
<path fill-rule="evenodd" clip-rule="evenodd" d="M-24.7153 856.817C58.9388 860.66 122.967 790.659 181.438 730.71C238.9 671.796 304.971 606.662 299.355 524.557C293.903 444.863 217.49 394.609 155.04 344.802C101.879 302.403 43.1818 262.38 -24.7153 266.094C-89.8468 269.657 -142.383 314.789 -185.824 363.448C-226.328 408.818 -250.783 463.917 -255.461 524.557C-260.601 591.179 -250.875 657.717 -212.759 712.601C-165.918 780.05 -106.747 853.048 -24.7153 856.817Z" fill="#FFEDFA"/>
<path fill-rule="evenodd" clip-rule="evenodd" d="M961.259 125.957C1044.91 122.114 1108.94 192.115 1167.41 252.064C1224.87 310.978 1290.95 376.112 1285.33 458.217C1279.88 537.91 1203.46 588.165 1141.01 637.972C1087.85 680.371 1029.16 720.394 961.259 716.68C896.128 713.117 843.591 667.985 800.151 619.326C759.646 573.956 735.192 518.856 730.514 458.217C725.374 391.595 735.1 325.056 773.215 270.173C820.056 202.724 879.228 129.725 961.259 125.957Z" fill="#EDF3FF"/>
<path opacity="0.8" d="M707 542C707 596.124 663.124 640 609 640C554.876 640 511 596.124 511 542C511 487.876 554.876 444 609 444C663.124 444 707 487.876 707 542ZM523.171 542C523.171 589.402 561.598 627.829 609 627.829C656.402 627.829 694.829 589.402 694.829 542C694.829 494.598 656.402 456.171 609 456.171C561.598 456.171 523.171 494.598 523.171 542Z" fill="#B2B2F1"/>
<path opacity="0.8" d="M656 523C656 551.167 633.167 574 605 574C576.833 574 554 551.167 554 523C554 494.833 576.833 472 605 472C633.167 472 656 494.833 656 523ZM560.334 523C560.334 547.668 580.332 567.666 605 567.666C629.668 567.666 649.666 547.668 649.666 523C649.666 498.332 629.668 478.334 605 478.334C580.332 478.334 560.334 498.332 560.334 523Z" fill="#D7D7ED"/>
<circle opacity="0.8" cx="637" cy="542" r="32" fill="#B2B2F1"/>
</g>
<defs>
<clipPath id="clip0_3_2">
<rect width="1512" height="917" fill="white"/>
</clipPath>
</defs>
</svg>
