<svg width="1512" height="982" viewBox="1512 982" fill="none" xmlns="http://www.w3.org/2000/svg">
<g clip-path="url(#clip0_8_33)">
<rect width="1512" height="982" fill="white"/>
<path d="M596.879 250.188C834.573 203.887 897.332 33.4373 899 -46H-23V1022.32C-15.2854 1029.81 34.797 1035.8 173.41 999.849C346.676 954.91 347.927 781.964 322.906 691.405C297.886 600.847 299.763 308.063 596.879 250.188Z" stroke="black"/>
<path d="M541.879 233.188C779.573 186.887 842.332 16.4373 844 -63H-78V1005.32C-70.2854 1012.81 -20.203 1018.8 118.41 982.849C291.676 937.91 292.927 764.964 267.906 674.405C242.886 583.847 244.763 291.063 541.879 233.188Z" fill="#2E1F93"/>
<path d="M489.93 178.859C729.944 141.051 793.316 1.86641 795 -63L-136 -63L-136 809.361C-128.21 815.477 -77.6388 820.369 62.327 791.013C237.284 754.317 238.547 613.093 213.283 539.146C188.018 465.198 189.913 226.119 489.93 178.859Z" fill="#4C2ACE"/>
<path d="M65.4984 731.86C59.8523 735.167 52.7435 731.122 52.7026 724.579L51.9938 611.132C51.9529 604.588 59.0105 600.455 64.6975 603.691L163.3 659.8C168.987 663.037 169.038 671.216 163.392 674.523L65.4984 731.86Z" stroke="white" stroke-width="3"/>
<path d="M113 762.5C113 790.943 89.9427 814 61.5 814C33.0573 814 10 790.943 10 762.5C10 734.057 33.0573 711 61.5 711C89.9427 711 113 734.057 113 762.5ZM17.8502 762.5C17.8502 786.607 37.3929 806.15 61.5 806.15C85.6071 806.15 105.15 786.607 105.15 762.5C105.15 738.393 85.6071 718.85 61.5 718.85C37.3929 718.85 17.8502 738.393 17.8502 762.5Z" fill="#E0E0F1"/>
<path d="M1501 179C1501 233.124 1457.12 277 1403 277C1348.88 277 1305 233.124 1305 179C1305 124.876 1348.88 81 1403 81C1457.12 81 1501 124.876 1501 179ZM1317.17 179C1317.17 226.402 1355.6 264.829 1403 264.829C1450.4 264.829 1488.83 226.402 1488.83 179C1488.83 131.598 1450.4 93.1713 1403 93.1713C1355.6 93.1713 1317.17 131.598 1317.17 179Z" fill="#B2B2F1"/>
<path d="M1450 160C1450 188.167 1427.17 211 1399 211C1370.83 211 1348 188.167 1348 160C1348 131.833 1370.83 109 1399 109C1427.17 109 1450 131.833 1450 160ZM1354.33 160C1354.33 184.668 1374.33 204.666 1399 204.666C1423.67 204.666 1443.67 184.668 1443.67 160C1443.67 135.332 1423.67 115.334 1399 115.334C1374.33 115.334 1354.33 135.332 1354.33 160Z" fill="#D7D7ED"/>
<path d="M34.2565 733.154C27.614 737.045 19.2507 732.286 19.2026 724.588L18.4938 611.141C18.4457 603.443 26.7488 598.58 33.4394 602.387L132.042 658.497C138.732 662.304 138.793 671.926 132.15 675.817L34.2565 733.154Z" fill="#ACACF5"/>
<circle cx="10" cy="103" r="174" fill="#ACACF5"/>
<circle cx="1431" cy="179" r="32" fill="#B2B2F1"/>
<circle cx="1484" cy="760" r="61" fill="#ACACF5"/>
</g>
<defs>
<clipPath id="clip0_8_33">
<rect width="1512" height="982" fill="white"/>
</clipPath>
</defs>
</svg>
