<svg width="360" height="800" viewBox="360 800" fill="none" xmlns="http://www.w3.org/2000/svg">
<g clip-path="url(#clip0_1_2)">
<rect width="360" height="800" fill="white"/>
<path fill-rule="evenodd" clip-rule="evenodd" d="M243.016 -64.8485C326.67 -68.6915 390.698 1.30937 449.169 61.2584C506.631 120.173 572.702 185.306 567.086 267.412C561.634 347.105 485.221 397.36 422.771 447.167C369.61 489.566 310.913 529.589 243.016 525.874C177.884 522.312 125.348 477.179 81.9069 428.52C41.4025 383.151 16.948 328.051 12.27 267.412C7.13041 200.789 16.8564 134.251 54.9715 79.3674C101.813 11.9188 160.984 -61.08 243.016 -64.8485Z" fill="#EDF3FF"/>
<path opacity="0.8" d="M346 711.5C346 732.211 329.211 749 308.5 749C287.789 749 271 732.211 271 711.5C271 690.789 287.789 674 308.5 674C329.211 674 346 690.789 346 711.5ZM275.657 711.5C275.657 729.638 290.362 744.343 308.5 744.343C326.638 744.343 341.343 729.638 341.343 711.5C341.343 693.362 326.638 678.657 308.5 678.657C290.362 678.657 275.657 693.362 275.657 711.5Z" fill="#B2B2F1"/>
<path opacity="0.8" d="M326 704.5C326 715.27 317.27 724 306.5 724C295.73 724 287 715.27 287 704.5C287 693.73 295.73 685 306.5 685C317.27 685 326 693.73 326 704.5ZM289.422 704.5C289.422 713.932 297.068 721.578 306.5 721.578C315.932 721.578 323.578 713.932 323.578 704.5C323.578 695.068 315.932 687.422 306.5 687.422C297.068 687.422 289.422 695.068 289.422 704.5Z" fill="#D7D7ED"/>
<ellipse opacity="0.8" cx="319" cy="711.5" rx="12" ry="12.5" fill="#B2B2F1"/>
<path fill-rule="evenodd" clip-rule="evenodd" d="M-151.984 1041.96C-68.3302 1045.81 -4.30244 975.805 54.1689 915.856C111.631 856.942 177.702 791.808 172.086 709.703C166.634 630.009 90.221 579.755 27.771 529.947C-25.3904 487.548 -84.0872 447.526 -151.984 451.24C-217.116 454.803 -269.652 499.935 -313.093 548.594C-353.598 593.964 -378.052 649.063 -382.73 709.703C-387.87 776.325 -378.144 842.863 -340.028 897.747C-293.187 965.195 -234.016 1038.19 -151.984 1041.96Z" fill="#FFEDFA"/>
</g>
<defs>
<clipPath id="clip0_1_2">
<rect width="360" height="800" fill="white"/>
</clipPath>
</defs>
</svg>
