<svg width="562" height="428" viewBox="562 428" fill="none" xmlns="http://www.w3.org/2000/svg">
<g clip-path="url(#clip0_3_7)">
<path d="M340.778 128.948C341.477 128.98 342.17 128.797 342.761 128.422C343.352 128.048 343.814 127.501 344.084 126.855C344.354 126.209 344.419 125.496 344.271 124.812C344.122 124.128 343.766 123.506 343.252 123.031C343.166 122.689 343.104 122.443 343.018 122.101C343.049 122.027 343.08 121.952 343.111 121.878C346.254 114.384 356.906 114.436 360.022 121.941C362.787 128.602 366.309 135.275 367.176 142.318C367.558 145.431 367.397 148.587 366.7 151.645C373.196 137.475 376.569 122.073 376.591 106.485C376.592 102.573 376.375 98.6646 375.94 94.7772C375.58 91.5903 375.081 88.426 374.443 85.2845C370.962 68.2389 363.486 52.2624 352.631 38.6669C347.377 35.8002 343.128 31.3919 340.457 26.0361C339.489 24.1108 338.805 22.0556 338.426 19.9344C339.019 20.0121 340.661 10.9858 340.214 10.432C341.04 9.17866 342.518 8.55564 343.42 7.33262C347.906 1.25014 354.087 2.31218 357.314 10.5778C364.207 14.0567 364.274 19.8263 360.044 25.3753C357.353 28.9056 356.984 33.6825 354.623 37.462C354.866 37.773 355.118 38.0742 355.361 38.3852C359.801 44.0948 363.671 50.2258 366.916 56.6903C365.998 49.5205 367.353 40.8828 369.663 35.3149C372.293 28.9708 377.222 23.6278 381.563 18.1433C386.777 11.5556 397.468 14.4306 398.387 22.7815C398.396 22.8624 398.405 22.9432 398.413 23.024C397.768 23.3877 397.137 23.7738 396.52 24.1822C395.744 24.7005 395.143 25.4411 394.795 26.3068C394.447 27.1726 394.369 28.1232 394.571 29.0341C394.773 29.9449 395.245 30.7736 395.926 31.4115C396.607 32.0494 397.464 32.4668 398.387 32.6089L398.481 32.6235C398.251 34.9472 397.845 37.2501 397.267 39.5122C402.835 61.0474 390.813 68.891 373.647 69.2433C373.268 69.4376 372.899 69.6319 372.52 69.8166C375.779 79.0538 377.824 88.6756 378.602 98.4401C379.042 104.201 379.017 109.988 378.524 115.744L378.553 115.54C379.797 109.139 383.212 103.363 388.221 99.1882C395.661 93.0768 406.171 90.8263 414.197 85.9139C418.061 83.5492 423.012 86.605 422.338 91.0843C422.327 91.1558 422.316 91.2273 422.305 91.2988C421.108 91.7861 419.943 92.3475 418.817 92.9796C418.172 93.3434 417.541 93.7295 416.923 94.1378C416.148 94.6561 415.547 95.3967 415.199 96.2624C414.851 97.1282 414.773 98.0788 414.975 98.9897C415.177 99.9006 415.649 100.729 416.33 101.367C417.011 102.005 417.868 102.422 418.79 102.565L418.885 102.579C418.953 102.589 419.011 102.599 419.079 102.608C417.035 107.49 414.165 111.982 410.597 115.89C407.115 134.69 392.16 136.473 376.163 130.999H376.154C374.398 138.626 371.855 146.05 368.565 153.151H341.458C341.36 152.85 341.273 152.539 341.185 152.238C343.695 152.396 346.214 152.246 348.686 151.791C346.675 149.323 344.664 146.836 342.653 144.368C342.608 144.322 342.566 144.273 342.526 144.222C341.506 142.959 340.476 141.706 339.456 140.443L339.455 140.441C339.401 136.569 339.845 132.707 340.777 128.948L340.778 128.948Z" fill="#AEFFA1"/>
<path d="M427.813 59.5733C422.772 41.1965 463.426 25.4381 474.101 40.2369C475.586 38.133 481.072 36.855 483.589 37.5004C486.106 38.1458 488.223 39.7594 490.288 41.3213C493.128 43.5027 496.071 45.7616 497.813 48.8983C499.569 52.022 499.84 56.2817 497.478 58.9924C495.606 61.148 490.081 62.5421 487.267 63.1101C485.305 63.5102 483.653 63.8329 482.233 64.0653C480.944 62.2071 480.349 59.9541 480.555 57.7016C479.599 58.3463 478.798 59.1945 478.209 60.1854C477.62 61.1763 477.257 62.2853 477.147 63.4328C477.109 63.9104 493.011 122.423 493.011 122.423C491.101 123.51 489.091 124.413 487.009 125.12C482.891 118.826 479.737 111.952 477.651 104.726C477.171 109.558 477.232 114.429 477.832 119.247C478.15 121.949 478.607 124.633 479.2 127.289C460.302 131.368 431.879 130.026 419.513 112.677C419.511 112.605 419.509 112.534 419.507 112.462C419.497 111.777 419.25 111.117 418.807 110.594C418.364 110.072 417.753 109.72 417.079 109.598C416.405 109.476 415.71 109.593 415.113 109.927C414.515 110.262 414.052 110.794 413.804 111.432C413.504 112.198 413.228 112.86 412.981 113.387C409.38 100.505 414.04 85.5959 427.813 59.5733Z" fill="#2F2E41"/>
<path d="M395.655 367.665V368.267C395.632 368.067 395.632 367.865 395.655 367.665V367.665Z" fill="#2F2E41"/>
<path d="M414.162 263.665C414.642 263.535 415.131 263.44 415.626 263.381C415.058 263.474 414.57 263.568 414.162 263.665Z" fill="#2F2E41"/>
<path d="M413.733 263.775C413.863 263.738 414.008 263.702 414.162 263.665C414.018 263.703 413.88 263.73 413.733 263.775Z" fill="#2F2E41"/>
<path d="M550.459 427.883H481.19C480.202 427.094 479.515 425.99 479.245 424.754C478.975 423.519 479.138 422.229 479.707 421.1C481.6 416.76 477.892 412.794 477.892 412.794C476.633 411.319 475.758 409.557 475.343 407.662C474.929 405.768 474.989 403.801 475.518 401.936C477.353 395.526 470.161 377.434 470.161 377.434C470.161 377.434 466.284 400.795 461.533 427.883H395.655C394.552 426.003 393.97 423.863 393.97 421.683C393.97 419.504 394.552 417.363 395.655 415.484C399.494 408.974 395.655 407.726 395.655 407.726C395.655 407.726 391.816 400.441 395.655 395.152C399.494 389.863 395.655 368.267 395.655 368.267C395.8 369.222 396.894 367.486 398.578 363.846C401.141 358.308 405.059 348.349 409.017 336.787C411.847 328.535 414.7 319.455 417.084 310.578H417.09C417.715 308.246 418.307 305.936 418.866 303.646C419.96 299.155 420.897 294.792 421.609 290.695C423.154 281.87 423.664 274.289 422.477 269.359C421.493 265.256 419.341 262.993 415.626 263.381C417.616 263.051 420.533 262.739 424.127 262.444C424.775 262.392 425.446 262.34 426.14 262.282C452.945 260.256 510.454 259.093 510.454 259.093L528.069 290.637L550.378 330.595C550.378 330.595 549.77 384.198 550.459 427.883Z" fill="#2F2E41"/>
<path d="M476.524 122.754L435.941 114.146L427.883 130.365L400.747 146.075C400.747 146.075 418.239 217.594 418.139 227.653C417.886 253.19 377.024 310.437 407.888 306.033C438.752 301.629 445.021 283.182 454.929 286.099C463.865 288.73 474.776 300.432 482.081 292.062C489.385 283.693 491.958 293.358 496.577 293.692C498.772 293.85 497.45 283.123 502.973 294.025C508.496 304.927 537.783 290.252 527.856 280.326C511.325 263.794 507.965 141.931 507.965 141.931L489.562 136.268L476.524 122.754Z" fill="#05BEE7"/>
<path d="M399.98 382.479C401.61 380.534 402.418 378.03 402.231 375.5C402.043 372.969 400.876 370.611 398.977 368.928C398.585 368.592 398.167 368.289 397.725 368.022L404.511 334.72L388.824 325.332L384.461 371.956C383.496 373.872 383.192 376.054 383.597 378.161C384.002 380.268 385.093 382.182 386.7 383.603C387.622 384.403 388.693 385.014 389.851 385.4C391.009 385.787 392.232 385.941 393.45 385.855C394.668 385.768 395.857 385.443 396.949 384.897C398.041 384.352 399.015 383.596 399.815 382.674C399.871 382.61 399.926 382.545 399.98 382.479Z" fill="#A0616A"/>
<path d="M448.686 206.942C448.587 205.872 447.222 205.386 445.329 204.714C443.429 204.129 441.622 203.273 439.965 202.174C435.775 199.147 437.425 195.982 439.705 191.607C440.15 190.756 440.613 189.871 441.047 188.951C442.338 186.225 440.283 174.982 434.93 155.526C433.281 149.537 433.287 145.307 432.147 142.5C431.013 139.694 428.739 138.311 422.541 138.021C415.05 137.643 407.714 140.25 402.142 145.272C401.992 145.405 401.836 145.55 401.685 145.689C401.402 145.955 401.124 146.227 400.852 146.505C395.699 151.688 392.751 158.664 392.623 165.972L392.594 167.216L391.315 226.658L387.722 278.82L382.768 350.675L386.437 350.855L401.078 351.584L402.854 351.671L407.067 333.998L412.136 312.731L414 304.919L419.781 280.684L422.477 269.359L424.126 262.444L424.798 259.62L428.073 245.893C428.148 245.604 435.683 215.877 444.369 210.906C447.609 209.054 448.778 207.978 448.686 206.942Z" fill="#05BEE7"/>
<path d="M546.142 382.125C544.312 380.367 543.241 377.964 543.155 375.428C543.07 372.891 543.977 370.422 545.685 368.545C546.038 368.169 546.421 367.822 546.831 367.51L536.509 335.129L551.096 324.11L560.441 369.996C561.607 371.798 562.143 373.934 561.967 376.072C561.791 378.211 560.911 380.23 559.466 381.816C558.635 382.711 557.636 383.433 556.526 383.941C555.416 384.45 554.217 384.735 552.997 384.78C551.777 384.825 550.56 384.629 549.416 384.204C548.271 383.778 547.222 383.132 546.327 382.301C546.265 382.243 546.203 382.184 546.142 382.125Z" fill="#A0616A"/>
<path d="M553.279 311.863C553.279 311.863 541.902 271.833 545.371 267.5C548.841 263.166 538.594 262.32 543.009 254.25C547.425 246.179 541.33 244.829 541.33 244.829L538.023 226.274L532.11 180.696L531.931 179.34L530.211 166.08C529.73 162.293 528.491 158.641 526.567 155.344C524.643 152.046 522.074 149.17 519.014 146.888C518.857 146.769 518.698 146.654 518.538 146.539C517.81 146.015 517.066 145.529 516.307 145.082C510.631 141.734 503.965 140.468 497.457 141.502C485.194 143.412 489.011 147.985 487.022 160.236C483.79 180.157 482.951 191.553 484.527 194.128C485.058 194.995 485.616 195.825 486.148 196.621C488.886 200.732 490.865 203.697 487.023 207.162C485.491 208.429 483.788 209.471 481.963 210.258C480.157 211.133 478.849 211.76 478.867 212.835C478.887 213.877 480.164 214.817 483.583 216.309C487.725 218.121 492.174 224.975 495.819 231.977C498.71 237.621 501.289 243.419 503.543 249.346L534.866 337.439L539.974 351.806L541.737 351.527L556.209 349.232L559.839 348.658L553.279 311.863Z" fill="#05BEE7"/>
<path d="M459.402 113.537C477.688 113.537 492.512 98.7136 492.512 80.4275C492.512 62.1414 477.688 47.3177 459.402 47.3177C441.116 47.3177 426.292 62.1414 426.292 80.4275C426.292 98.7136 441.116 113.537 459.402 113.537Z" fill="#A0616A"/>
<path d="M409.741 62.1549C404.701 43.7782 445.354 28.0198 456.03 42.8186C457.514 40.7146 463 39.4367 465.517 40.0821C468.034 40.7275 470.151 42.341 472.217 43.9029C475.056 46.0844 477.999 48.3433 479.742 51.4799C481.497 54.6037 481.768 58.8634 479.406 61.574C477.535 63.7297 472.01 65.1238 469.196 65.6917C467.234 66.0919 465.582 66.4146 464.162 66.6469C462.872 64.7888 462.278 62.5357 462.484 60.2832C461.528 60.9279 460.727 61.7761 460.138 62.767C459.549 63.7579 459.186 64.8669 459.076 66.0144C459.037 66.492 474.94 125.004 474.94 125.004C473.029 126.092 471.02 126.995 468.938 127.702C464.82 121.408 461.665 114.534 459.579 107.307C459.1 112.14 459.161 117.01 459.76 121.829C460.079 124.531 460.536 127.215 461.128 129.871C442.231 133.95 413.807 132.607 401.442 115.259C401.439 115.187 401.437 115.115 401.435 115.043C401.426 114.359 401.178 113.698 400.735 113.176C400.293 112.654 399.682 112.301 399.008 112.18C398.334 112.058 397.639 112.175 397.041 112.509C396.444 112.844 395.981 113.376 395.733 114.014C395.433 114.779 395.156 115.442 394.91 115.969C391.309 103.086 395.969 88.1776 409.741 62.1549Z" fill="#2F2E41"/>
<path d="M245.537 176.564C244.838 176.596 244.145 176.412 243.554 176.038C242.963 175.663 242.501 175.116 242.231 174.471C241.961 173.825 241.896 173.112 242.044 172.428C242.193 171.744 242.549 171.122 243.063 170.647C243.149 170.305 243.211 170.059 243.297 169.717C243.266 169.642 243.235 169.568 243.204 169.494C240.061 162 229.409 162.051 226.293 169.556C223.528 176.218 220.006 182.89 219.139 189.934C218.757 193.047 218.918 196.203 219.615 199.261C213.119 185.091 209.746 169.689 209.724 154.101C209.723 150.189 209.94 146.28 210.375 142.393C210.735 139.206 211.234 136.042 211.872 132.9C215.353 115.855 222.829 99.8782 233.684 86.2827C238.938 83.416 243.187 79.0077 245.858 73.6519C246.826 71.7266 247.51 69.6714 247.889 67.5501C247.296 67.6279 245.654 58.6016 246.101 58.0478C245.275 56.7945 243.797 56.1714 242.895 54.9484C238.409 48.8659 232.228 49.928 229.001 58.1936C222.108 61.6725 222.041 67.4421 226.271 72.9911C228.962 76.5214 229.331 81.2983 231.692 85.0778C231.449 85.3888 231.197 85.69 230.954 86.0009C226.514 91.7106 222.644 97.8416 219.399 104.306C220.317 97.1363 218.962 88.4986 216.652 82.9307C214.022 76.5866 209.093 71.2436 204.752 65.7591C199.538 59.1714 188.847 62.0464 187.928 70.3973C187.919 70.4782 187.911 70.559 187.902 70.6398C188.547 71.0035 189.178 71.3896 189.796 71.798C190.571 72.3163 191.172 73.0569 191.52 73.9226C191.868 74.7884 191.946 75.739 191.744 76.6499C191.542 77.5607 191.07 78.3894 190.389 79.0273C189.708 79.6652 188.851 80.0826 187.929 80.2247L187.834 80.2393C188.064 82.563 188.47 84.8659 189.049 87.128C183.48 108.663 195.502 116.507 212.668 116.859C213.047 117.053 213.417 117.248 213.795 117.432C210.536 126.67 208.491 136.291 207.713 146.056C207.273 151.817 207.299 157.604 207.791 163.36L207.762 163.156C206.518 156.755 203.103 150.979 198.094 146.804C190.655 140.693 180.144 138.442 172.118 133.53C168.254 131.165 163.303 134.221 163.978 138.7C163.988 138.772 163.999 138.843 164.01 138.915C165.207 139.402 166.372 139.963 167.498 140.595C168.143 140.959 168.774 141.345 169.392 141.754C170.168 142.272 170.769 143.012 171.116 143.878C171.464 144.744 171.542 145.695 171.34 146.605C171.138 147.516 170.666 148.345 169.985 148.983C169.305 149.621 168.447 150.038 167.525 150.18L167.43 150.195C167.362 150.205 167.304 150.214 167.236 150.224C169.28 155.105 172.15 159.598 175.718 163.506C179.2 182.305 194.155 184.089 210.152 178.614H210.162C211.917 186.242 214.46 193.666 217.75 200.767H244.858C244.955 200.466 245.042 200.155 245.13 199.854C242.621 200.011 240.102 199.861 237.629 199.407C239.64 196.939 241.651 194.452 243.663 191.984C243.707 191.938 243.75 191.889 243.789 191.838C244.809 190.575 245.839 189.321 246.859 188.058L246.86 188.057C246.914 184.185 246.47 180.323 245.538 176.564L245.537 176.564Z" fill="#AEFFA1"/>
<path d="M119.05 40.2376C118.435 41.6714 99.4645 41.5177 98.5957 42.7944C91.8968 52.6509 116.045 94.588 109.346 104.457L108.413 105.57C110.598 104.562 112.698 103.378 114.69 102.028C114.869 97.9886 115.048 93.936 115.239 89.8963C117.246 92.4631 118.865 95.31 120.046 98.3465C121.606 97.2471 122.885 95.209 129.57 91.2002C132.277 88.2272 135.397 85.659 138.834 83.5743L119.05 40.2376Z" fill="#2F2E41"/>
<path d="M132.826 121.017C130.732 119.654 128.344 118.809 125.859 118.553C123.373 118.297 120.863 118.638 118.535 119.546C116.208 120.455 114.131 121.906 112.477 123.778C110.822 125.65 109.638 127.89 109.022 130.311L80.1942 205.426L30.6418 177.293C30.4242 174.06 29.1882 170.978 27.1109 168.49C25.0337 166.003 22.222 164.237 19.079 163.446C15.9361 162.655 12.6234 162.88 9.61613 164.088C6.60884 165.296 4.06144 167.426 2.33928 170.171C0.617114 172.917 -0.191331 176.137 0.0298956 179.371C0.251122 182.604 1.49066 185.684 3.57071 188.169C5.65077 190.655 8.46448 192.418 11.6083 193.205C14.7521 193.992 18.0645 193.764 21.0705 192.552C31.5058 203.69 76.7466 249.353 95.476 231.511C111.219 216.514 133.938 158.392 139.407 138.321C140.283 135.111 140.118 131.706 138.935 128.597C137.752 125.487 135.613 122.833 132.826 121.017V121.017Z" fill="#FFB6B6"/>
<path d="M78.6941 234.659L87.7914 275.778L154.314 281.795L160.428 245.992L78.6941 234.659Z" fill="#FFB6B6"/>
<path d="M180.308 340.102C180.278 340.692 180.242 341.275 180.199 341.865C179.561 350.384 178.832 360.211 178.042 370.979C176.796 388.067 175.404 407.525 174.001 427.883H34.4691L61.5298 346.546C61.5298 346.546 72.4562 340.53 66.8934 330.425C61.3306 320.319 72.2762 328.372 72.378 313.939C72.4799 299.507 82.2882 284.152 82.2882 284.152L83.8986 262.3L84.8162 262.318L157.429 263.527L158.754 263.552L160.984 282.311C174.525 298.425 181.433 319.084 180.308 340.102V340.102Z" fill="#2F2E41"/>
<path d="M120.213 101.09L153.324 99.3843L168.704 123.686C168.704 123.686 197.641 128.523 195.635 162.622C193.629 196.72 160.427 226.642 160.427 226.642L161.847 221.776L159.382 228.819L159.698 232.774L163.061 236.962L163.407 241.293L160.427 248.146C160.815 248.767 161.02 249.484 161.021 250.216C161.021 250.948 160.817 251.665 160.43 252.287C160.044 252.908 159.491 253.409 158.834 253.732C158.177 254.055 157.443 254.188 156.715 254.115L108.871 249.32C107.782 246.324 106.908 242.739 102.542 248.707L98.0347 248.27L79.2994 246.455L78.1966 242.438C77.57 240.155 77.4724 237.76 77.9111 235.434C78.3498 233.108 79.3133 230.913 80.7284 229.015V229.015C79.101 223.919 79.5272 218.39 81.9163 213.603L82.0059 213.424L83.9955 211.765C83.9955 211.765 62.2286 179.064 87.2164 154.433L97.2453 137.384L108.467 123.693L120.213 101.09Z" fill="#FF6363"/>
<path d="M128.454 86.7449C145.795 86.7449 159.853 72.6872 159.853 55.3461C159.853 38.005 145.795 23.9473 128.454 23.9473C111.113 23.9473 97.0551 38.005 97.0551 55.3461C97.0551 72.6872 111.113 86.7449 128.454 86.7449Z" fill="#FFB6B6"/>
<path d="M152.301 100.578C149.745 98.4418 147.965 95.5207 147.239 92.2687C146.658 96.2171 146.81 100.239 147.686 104.132C145.986 105.411 144.337 106.625 142.777 107.725C141.596 104.688 139.977 101.841 137.97 99.2743C137.779 103.314 137.6 107.367 137.421 111.406C135.429 112.756 133.329 113.94 131.144 114.948L132.077 113.835C138.776 103.966 121.441 85.8 128.14 75.9434C130.019 73.182 121.53 51.3597 115.062 50.3753C109.309 49.506 109.552 51.168 103.978 52.3825C103.399 49.9684 102.5 47.6425 101.306 45.4662C101.624 47.8912 101.55 50.3515 101.089 52.7532C99.1071 52.8299 97.5481 51.5673 95.4381 51.2447C81.9764 49.1864 83.3443 34.6255 87.09 30.0104C90.8485 25.4081 103.326 24.0275 109.079 22.5317C109.603 22.0203 110.792 22.3399 111.316 21.8541C122.341 11.7643 137.086 10.0933 150.355 14.5654C164.506 19.3345 173.329 28.5648 177.857 42.7944L179.155 54.1818C180.321 57.8432 178.855 74.8793 177.857 78.5897C173.977 93.0127 165.714 85.8127 152.301 100.578Z" fill="#2F2E41"/>
<path d="M198.084 249.338L196.848 153.065C196.783 148.986 195.118 145.096 192.211 142.235C189.304 139.373 185.388 137.77 181.309 137.77H181.309C179.199 137.77 177.111 138.199 175.172 139.033C173.233 139.866 171.484 141.086 170.032 142.617C168.58 144.148 167.455 145.959 166.726 147.939C165.997 149.919 165.678 152.027 165.79 154.134L170.14 254.099L170.222 314.953C167.659 316.04 165.492 317.89 164.016 320.252C162.541 322.613 161.828 325.372 161.975 328.153C162.121 330.933 163.121 333.602 164.837 335.795C166.553 337.988 168.902 339.6 171.566 340.411C174.23 341.222 177.079 341.194 179.726 340.33C182.373 339.465 184.69 337.807 186.362 335.58C188.034 333.353 188.98 330.665 189.071 327.882C189.163 325.099 188.395 322.355 186.872 320.023L198.084 249.338Z" fill="#FFB6B6"/>
<path d="M360.136 373.892C360.136 373.892 358.225 408.276 357.346 427.886H291.529C290.174 410.04 289.718 396.929 289.718 396.929L286.117 427.886H219.589L215.465 370.552L235.396 321.146C235.396 321.146 343.41 313.655 353.43 323.158C363.442 332.654 360.136 373.892 360.136 373.892Z" fill="#2F2E41"/>
<path d="M301.935 84.6511C321.79 84.6511 337.886 68.5552 337.886 48.6999C337.886 28.8447 321.79 12.7488 301.935 12.7488C282.08 12.7488 265.984 28.8447 265.984 48.6999C265.984 68.5552 282.08 84.6511 301.935 84.6511Z" fill="#FFB6B6"/>
<path d="M343.84 37.0181C340.147 38.7018 337.754 50.8967 334.852 48.0616C331.949 45.2266 332.143 41.5372 328.23 40.4909C325.07 39.6424 321.67 40.6122 318.787 42.1416C318.273 42.4115 317.774 42.7049 317.287 42.9967C316.966 42.7823 316.647 42.5804 316.304 42.3942C313.726 41.0145 310.717 40.6761 307.896 41.4485C310.125 42.195 312.062 43.6231 313.435 45.5309C312.47 46.1774 311.493 46.8255 310.494 47.3998C302.144 52.2182 290.263 41.7407 281.474 37.8046C286.979 48.1352 284.268 52.4136 279.488 63.0976L279.323 63.706C279.595 61.0283 271.309 59.0327 271.789 62.8022C272.131 65.4785 274.447 71.4272 275.744 73.7901C266.503 63.1056 260.189 50.0307 261.521 36.5428C261.811 33.7094 261.724 30.7199 263.185 28.2607C264.648 25.8142 267.698 24.0973 270.397 25.0303C270.168 20.7289 271.109 16.4459 273.12 12.6367C275.131 8.82745 278.137 5.6344 281.818 3.39698C285.499 1.15956 289.717 -0.0386048 294.025 -0.0701316C298.332 -0.101658 302.567 1.03463 306.281 3.21794C309.731 5.24252 312.611 8.10592 315.774 10.5758C318.936 13.0457 322.581 15.1987 326.591 15.4026C329.135 15.5252 331.904 14.9042 334.089 16.2217C336.621 17.7505 337.054 20.9513 337.434 24.0313C335.176 24.2539 333.036 25.1447 331.286 26.5898C333.623 26.3515 335.975 26.856 338.008 28.0315C338.046 28.049 338.083 28.0699 338.118 28.0941C339.456 33.1843 339.319 34.3127 343.84 37.0181Z" fill="#2F2E41"/>
<path d="M219.749 338.539C250.364 302.703 240.023 257.123 227.872 211.112L230.184 143.139C230.298 139.805 231.212 136.547 232.849 133.64C234.487 130.734 236.8 128.264 239.593 126.439L270.847 106.021L283.012 88.4323L316.544 91.7855L335.139 111.45L355.721 127.163C360.889 131.109 364.821 136.449 367.054 142.556C369.287 148.662 369.728 155.279 368.324 161.628L348.627 250.703C348.627 250.703 356.866 296.88 351.839 301.98C346.812 307.08 333.86 301.983 344.131 307.708C356.457 314.578 367.665 313.311 361.427 319.548C355.19 325.786 363.084 334.458 363.084 334.458L219.749 338.539Z" fill="#6C63FF"/>
<path d="M232.838 390.621L237.942 354.258L217.577 348.444L213.548 387.081C211.863 388.627 210.642 390.612 210.023 392.813C209.403 395.014 209.411 397.344 210.043 399.542C210.676 401.739 211.909 403.717 213.604 405.252C215.298 406.787 217.388 407.819 219.637 408.232C221.886 408.644 224.206 408.421 226.335 407.588C228.465 406.755 230.319 405.344 231.691 403.514C233.063 401.685 233.897 399.509 234.099 397.231C234.302 394.953 233.865 392.664 232.838 390.621V390.621Z" fill="#FFB6B6"/>
<path d="M271.611 112.575C271.611 112.575 213.642 131.443 212.259 145.247C210.877 159.052 211.335 167.503 205.217 222.744L205.539 371.549C205.539 371.549 244.404 379.87 240.419 370.973C236.433 362.077 237.824 357.891 237.824 357.891C237.824 357.891 246.156 354.602 244.07 344.156C241.985 333.71 252.445 281.942 252.445 281.942L259.047 189.099L271.611 112.575Z" fill="#6C63FF"/>
<path d="M343.089 388.695L340.372 352.077L361.075 347.606L362.569 386.424C364.15 388.076 365.238 390.137 365.712 392.374C366.186 394.611 366.027 396.936 365.252 399.087C364.477 401.238 363.117 403.131 361.326 404.552C359.534 405.973 357.382 406.866 355.11 407.131C352.839 407.396 350.539 407.022 348.469 406.051C346.398 405.08 344.64 403.551 343.391 401.636C342.142 399.72 341.452 397.495 341.398 395.209C341.345 392.922 341.93 390.667 343.089 388.695H343.089Z" fill="#FFB6B6"/>
<path d="M322.573 108.71C322.573 108.71 379.185 131.326 379.662 145.192C380.139 159.057 379.13 167.46 381.624 222.983L371.576 371.448C371.576 371.448 332.25 377.211 336.809 368.594C341.367 359.977 340.253 355.709 340.253 355.709C340.253 355.709 332.153 351.883 334.918 341.596C337.682 331.308 330.628 278.967 330.628 278.967L330.108 185.891L322.573 108.71Z" fill="#6C63FF"/>
</g>
<defs>
<clipPath id="clip0_3_7">
<rect width="562" height="427.874" fill="white" transform="translate(0 0.0119629)"/>
</clipPath>
</defs>
</svg>
